<svg width="429" height="434" viewBox="0 0 429 434" fill="none" xmlns="http://www.w3.org/2000/svg">
<path d="M118.292 328.771C91.0796 273.205 73.2493 213.542 66.6209 151.131C114.084 102.31 164.04 63.4442 219.173 39.4755C273.392 67.1631 322.984 103.949 365.218 147.808C353.672 210.005 332.835 270.469 302.75 326.286C243.555 337.659 181.664 337.449 118.292 328.771Z" fill="#866DE0" fill-opacity="0.05"/>
<path d="M94.1037 274.294C107.335 213.859 130.463 156.05 164.074 103.054C231.606 94.3344 294.9 94.9614 352.987 110.473C378.243 165.869 394.217 225.513 400.03 286.121C352.317 327.648 298.402 362.041 240.135 387.045C186.696 359.144 138.347 320.495 94.1037 274.294Z" fill="#866DE0" fill-opacity="0.05"/>
<path d="M165.014 355.922C140.838 306.618 124.985 253.684 119.071 198.319C161.163 155.037 205.472 120.587 254.382 99.3542C302.509 123.943 346.534 156.6 384.035 195.527C373.822 250.693 355.363 304.317 328.695 353.814C276.174 363.871 221.253 363.653 165.014 355.922Z" stroke="black" stroke-opacity="0.15" stroke-linecap="square" stroke-linejoin="round" stroke-dasharray="4 6"/>
</svg>
