<svg width="419" height="439" viewBox="0 0 419 439" fill="none" xmlns="http://www.w3.org/2000/svg">
<path opacity="0.05" d="M37.9901 219.426C51.265 159.176 74.4324 101.536 108.077 48.6864C175.604 39.9439 238.887 40.5213 296.952 55.9391C322.162 111.137 338.088 170.576 343.855 230.984C296.119 272.414 242.188 306.736 183.911 331.703C130.503 303.932 82.191 265.444 37.9901 219.426Z" fill="#FF7C52"/>
<path opacity="0.05" d="M121.909 351.068C94.8441 295.626 77.15 236.077 70.6402 173.766C118.092 124.933 168.014 86.0379 223.077 62.0098C277.142 89.5667 326.573 126.217 368.649 169.942C357.021 232.071 336.123 292.485 306.004 348.274C246.908 359.731 185.139 359.626 121.909 351.068Z" fill="#FF7C52"/>
<path opacity="0.15" d="M74.9901 281.426C88.265 221.176 111.432 163.536 145.077 110.686C212.604 101.944 275.887 102.521 333.952 117.939C359.162 173.137 375.088 232.576 380.855 292.984C333.119 334.414 279.188 368.736 220.911 393.703C167.503 365.932 119.191 327.444 74.9901 281.426Z" stroke="black" stroke-linecap="square" stroke-linejoin="round" stroke-dasharray="4 6"/>
</svg>
