<svg width="438" height="455" viewBox="0 0 438 455" fill="none" xmlns="http://www.w3.org/2000/svg">
<path opacity="0.05" d="M49.9901 219.426C63.265 159.176 86.4324 101.536 120.077 48.6864C187.604 39.9439 250.887 40.5213 308.952 55.9391C334.162 111.137 350.088 170.576 355.855 230.984C308.119 272.414 254.188 306.736 195.911 331.703C142.503 303.932 94.191 265.444 49.9901 219.426Z" fill="#FF5281"/>
<path opacity="0.15" d="M117.909 334.068C90.8441 278.626 73.15 219.077 66.6402 156.766C114.092 107.933 164.014 69.0379 219.077 45.0098C273.142 72.5667 322.573 109.217 364.649 152.942C353.021 215.071 332.123 275.485 302.004 331.274C242.908 342.731 181.139 342.626 117.909 334.068Z" stroke="black" stroke-linecap="square" stroke-linejoin="round" stroke-dasharray="4 6"/>
<path opacity="0.05" d="M140.909 367.068C113.844 311.626 96.15 252.077 89.6402 189.766C137.092 140.933 187.014 102.038 242.077 78.0098C296.142 105.567 345.573 142.217 387.649 185.942C376.021 248.071 355.123 308.485 325.004 364.274C265.908 375.731 204.139 375.626 140.909 367.068Z" fill="#FF5281"/>
</svg>
