<svg width="428" height="433" viewBox="0 0 428 433" fill="none" xmlns="http://www.w3.org/2000/svg">
<path d="M117.909 328.408C90.8441 272.967 73.15 213.418 66.6402 151.107C114.092 102.274 164.014 63.3787 219.077 39.3506C273.142 66.9075 322.573 103.558 364.649 147.283C353.021 209.412 332.123 269.826 302.004 325.615C242.908 337.072 181.139 336.967 117.909 328.408Z" fill="#866DE0" fill-opacity="0.05"/>
<path d="M93.9901 274.767C107.265 214.517 130.432 156.877 164.077 104.027C231.604 95.2848 294.887 95.8621 352.952 111.28C378.162 166.478 394.088 225.917 399.855 286.325C352.119 327.754 298.188 362.077 239.911 387.043C186.503 359.273 138.191 320.785 93.9901 274.767Z" fill="#866DE0" fill-opacity="0.05"/>
<path d="M164.629 355.562C140.601 306.381 124.884 253.56 119.088 198.293C161.167 154.998 205.44 120.518 254.28 99.2261C302.251 123.685 346.115 156.207 383.456 195.002C373.162 250.102 354.643 303.677 327.943 353.146C275.521 363.288 220.725 363.175 164.629 355.562Z" stroke="black" stroke-opacity="0.15" stroke-linecap="square" stroke-linejoin="round" stroke-dasharray="4 6"/>
</svg>
