<svg width="286" height="470" viewBox="0 0 286 470" fill="none" xmlns="http://www.w3.org/2000/svg">
<path d="M487.756 302.893C468.231 336.053 440.83 363.887 407.979 383.929C375.127 403.97 337.841 415.601 299.421 417.791C261.001 419.981 222.635 412.662 187.719 396.483C152.804 380.303 122.418 355.763 99.2527 325.036C76.0872 294.308 60.8574 258.342 54.9123 220.323C48.9672 182.304 52.4904 143.405 65.1696 107.072C77.8489 70.7398 99.2929 38.0946 127.602 12.0287C155.912 -14.0373 190.212 -32.7195 227.466 -42.3632M293.681 -49.7664C329.466 -48.5892 364.505 -39.2205 396.102 -22.3808C427.7 -5.5411 455.014 18.321 475.944 47.3703C496.875 76.4197 510.864 109.882 516.836 145.185C522.807 180.488 520.603 216.69 510.392 251.007" stroke="url(#paint0_linear_1237_14137)" stroke-opacity="0.5" stroke-width="2" stroke-linecap="square" stroke-linejoin="round" stroke-dasharray="4 6"/>
<path d="M420.672 202.17C425.381 182.849 429.101 162.807 432 142.12C389.948 98.3245 340.607 62.9511 286.22 36C230.711 65.197 181.37 100.009 141 142.12C149.971 201.637 169.035 259.47 196.509 313.372C218.133 316.845 239.98 319.054 261.888 320" stroke="#2B2B2B" stroke-opacity="0.2" stroke-width="2"/>
<defs>
<linearGradient id="paint0_linear_1237_14137" x1="335.178" y1="417.608" x2="-63.6405" y2="-56.6796" gradientUnits="userSpaceOnUse">
<stop stop-color="#7271EF"/>
<stop offset="0.699636" stop-color="#16181D" stop-opacity="0"/>
<stop offset="1" stop-color="#FF5281"/>
</linearGradient>
</defs>
</svg>
