<svg width="715" height="497" viewBox="0 0 715 497" fill="none" xmlns="http://www.w3.org/2000/svg">
<path d="M119.107 260.045C146.809 307.093 185.686 346.584 232.295 375.019C278.905 403.454 331.807 419.955 386.317 423.062C440.827 426.169 495.262 415.785 544.8 392.83C594.338 369.875 637.449 335.057 670.317 291.461C703.184 247.865 724.792 196.836 733.227 142.894C741.662 88.9522 736.663 33.7626 718.674 -17.7862C700.685 -69.3351 670.26 -115.652 630.094 -152.635C589.929 -189.617 541.263 -216.123 488.407 -229.806M394.462 -240.31C343.689 -238.639 293.976 -225.347 249.146 -201.455C204.315 -177.563 165.562 -143.707 135.865 -102.492C106.169 -61.2764 86.3215 -13.7994 77.8486 36.2881C69.3757 86.3756 72.5033 137.739 86.991 186.429" stroke="url(#paint0_linear_1237_14221)" stroke-opacity="0.5" stroke-width="2" stroke-linecap="square" stroke-linejoin="round" stroke-dasharray="4 6"/>
<path d="M215.116 117.797C208.416 90.3804 203.125 61.9408 199 32.5858C258.827 -29.5607 329.023 -79.756 406.399 -118C485.37 -76.569 555.566 -27.1705 613 32.5858C600.237 117.041 573.116 199.107 534.029 275.595C503.264 280.523 472.183 283.658 441.015 285" stroke="url(#paint1_linear_1237_14221)" stroke-opacity="0.2" stroke-width="2"/>
<defs>
<linearGradient id="paint0_linear_1237_14221" x1="335.585" y1="422.803" x2="771.078" y2="-65.128" gradientUnits="userSpaceOnUse">
<stop stop-color="#7271EF"/>
<stop offset="0.806032" stop-color="#16181D" stop-opacity="0"/>
<stop offset="0.888043" stop-color="#FF5281"/>
<stop offset="1" stop-color="#FF7C52"/>
</linearGradient>
<linearGradient id="paint1_linear_1237_14221" x1="582.052" y1="300.806" x2="280.505" y2="-118.278" gradientUnits="userSpaceOnUse">
<stop stop-color="#EAE9F3"/>
<stop offset="1" stop-color="#EAE9F3" stop-opacity="0"/>
</linearGradient>
</defs>
</svg>
