<?xml version="1.0" encoding="UTF-8"?><svg xmlns="http://www.w3.org/2000/svg" xmlns:xlink="http://www.w3.org/1999/xlink" viewBox="0 0 742.51 400.72"><defs><style>.cls-1{fill:#333;}.cls-2{fill:#231f20;}.cls-3,.cls-4{fill:#fff;}.cls-5{fill:url(#V_KƒOƒ_ƒf_ƒVƒ_ƒ_ƒXƒEƒHƒbƒ_15);stroke-width:2.04px;}.cls-5,.cls-6{stroke:#ccc;}.cls-7{fill:url(#V_KƒOƒ_ƒf_ƒVƒ_ƒ_ƒXƒEƒHƒbƒ_1);}.cls-8{fill:#ed1c24;}.cls-9{stroke:#b3b3b3;stroke-linecap:round;stroke-linejoin:round;stroke-width:1.36px;}.cls-9,.cls-10,.cls-11{mix-blend-mode:multiply;}.cls-9,.cls-12{fill:none;}.cls-13{fill:url(#V_KƒOƒ_ƒf_ƒVƒ_ƒ_ƒXƒEƒHƒbƒ_13-4);}.cls-14{fill:#4d4d4d;}.cls-15{fill:url(#V_KƒOƒ_ƒf_ƒVƒ_ƒ_ƒXƒEƒHƒbƒ_3);}.cls-16{fill:#303f5d;}.cls-10{fill:#999;}.cls-17{isolation:isolate;}.cls-18{fill:url(#V_KƒOƒ_ƒf_ƒVƒ_ƒ_ƒXƒEƒHƒbƒ_8);}.cls-19{fill:url(#V_KƒOƒ_ƒf_ƒVƒ_ƒ_ƒXƒEƒHƒbƒ_3-2);}.cls-20{fill:url(#V_KƒOƒ_ƒf_ƒVƒ_ƒ_ƒXƒEƒHƒbƒ_13-2);}.cls-21{fill:#1a1a1a;}.cls-22{fill:url(#V_KƒOƒ_ƒf_ƒVƒ_ƒ_ƒXƒEƒHƒbƒ_3-4);}.cls-23{fill:#666;}.cls-24{fill:#b3b3b3;}.cls-25{fill:url(#V_KƒOƒ_ƒf_ƒVƒ_ƒ_ƒXƒEƒHƒbƒ_13-3);}.cls-26{fill:#ed3438;}.cls-27{fill:url(#V_KƒOƒ_ƒf_ƒVƒ_ƒ_ƒXƒEƒHƒbƒ_8-2);}.cls-6{fill:url(#V_KƒOƒ_ƒf_ƒVƒ_ƒ_ƒXƒEƒHƒbƒ_2);}.cls-6,.cls-12{stroke-width:2.72px;}.cls-28{fill:url(#V_KƒOƒ_ƒf_ƒVƒ_ƒ_ƒXƒEƒHƒbƒ_13);}.cls-29{fill:url(#V_KƒOƒ_ƒf_ƒVƒ_ƒ_ƒXƒEƒHƒbƒ_3-3);}.cls-12{stroke:#1a1a1a;}.cls-30{fill:#92121c;}.cls-4{mix-blend-mode:screen;opacity:.4;}</style><linearGradient id="V_KƒOƒ_ƒf_ƒVƒ_ƒ_ƒXƒEƒHƒbƒ_15" x1="103.59" y1="362.47" x2="103.59" y2="81.7" gradientTransform="translate(2.94 -5.37) rotate(.83)" gradientUnits="userSpaceOnUse"><stop offset=".01" stop-color="#e0e0e0"/><stop offset=".04" stop-color="#e1e1e1"/><stop offset=".22" stop-color="#e7e7e8"/><stop offset=".36" stop-color="#cfcfcf"/><stop offset=".54" stop-color="#eff0f0"/><stop offset=".87" stop-color="#f9f9f9"/><stop offset="1" stop-color="#e6e6e6"/></linearGradient><linearGradient id="V_KƒOƒ_ƒf_ƒVƒ_ƒ_ƒXƒEƒHƒbƒ_8" x1="146.68" y1="375.85" x2="146.68" y2="307.62" gradientTransform="translate(2.94 -5.37) rotate(.83)" gradientUnits="userSpaceOnUse"><stop offset="0" stop-color="#b3b3b3"/><stop offset="1" stop-color="gray"/></linearGradient><linearGradient id="V_KƒOƒ_ƒf_ƒVƒ_ƒ_ƒXƒEƒHƒbƒ_13" x1="146.68" y1="321.63" x2="146.68" y2="364.55" gradientTransform="translate(2.94 -5.37) rotate(.83)" gradientUnits="userSpaceOnUse"><stop offset="0" stop-color="#d9d9d9"/><stop offset=".29" stop-color="#a0a0a0"/><stop offset=".62" stop-color="#656565"/><stop offset=".87" stop-color="#404040"/><stop offset="1" stop-color="#333"/></linearGradient><linearGradient id="V_KƒOƒ_ƒf_ƒVƒ_ƒ_ƒXƒEƒHƒbƒ_13-2" x1="146.87" y1="359.64" x2="146.87" y2="327.11" xlink:href="#V_KƒOƒ_ƒf_ƒVƒ_ƒ_ƒXƒEƒHƒbƒ_13"/><linearGradient id="V_KƒOƒ_ƒf_ƒVƒ_ƒ_ƒXƒEƒHƒbƒ_3" x1="104.83" y1="305.98" x2="188.61" y2="305.98" gradientTransform="translate(2.94 -5.37) rotate(.83)" gradientUnits="userSpaceOnUse"><stop offset="0" stop-color="#1a1a1a"/><stop offset=".51" stop-color="gray"/><stop offset="1" stop-color="#1a1a1a"/></linearGradient><linearGradient id="V_KƒOƒ_ƒf_ƒVƒ_ƒ_ƒXƒEƒHƒbƒ_3-2" x1="108.62" y1="375.85" x2="184.81" y2="375.85" xlink:href="#V_KƒOƒ_ƒf_ƒVƒ_ƒ_ƒXƒEƒHƒbƒ_3"/><linearGradient id="V_KƒOƒ_ƒf_ƒVƒ_ƒ_ƒXƒEƒHƒbƒ_8-2" x1="568.06" x2="568.06" y2="307.62" xlink:href="#V_KƒOƒ_ƒf_ƒVƒ_ƒ_ƒXƒEƒHƒbƒ_8"/><linearGradient id="V_KƒOƒ_ƒf_ƒVƒ_ƒ_ƒXƒEƒHƒbƒ_13-3" x1="568.05" x2="568.05" y2="364.55" xlink:href="#V_KƒOƒ_ƒf_ƒVƒ_ƒ_ƒXƒEƒHƒbƒ_13"/><linearGradient id="V_KƒOƒ_ƒf_ƒVƒ_ƒ_ƒXƒEƒHƒbƒ_13-4" x1="568.25" y1="359.64" x2="568.25" y2="327.11" xlink:href="#V_KƒOƒ_ƒf_ƒVƒ_ƒ_ƒXƒEƒHƒbƒ_13"/><linearGradient id="V_KƒOƒ_ƒf_ƒVƒ_ƒ_ƒXƒEƒHƒbƒ_3-3" x1="526.2" x2="609.98" xlink:href="#V_KƒOƒ_ƒf_ƒVƒ_ƒ_ƒXƒEƒHƒbƒ_3"/><linearGradient id="V_KƒOƒ_ƒf_ƒVƒ_ƒ_ƒXƒEƒHƒbƒ_3-4" x1="529.99" y1="375.85" x2="606.18" y2="375.85" xlink:href="#V_KƒOƒ_ƒf_ƒVƒ_ƒ_ƒXƒEƒHƒbƒ_3"/><linearGradient id="V_KƒOƒ_ƒf_ƒVƒ_ƒ_ƒXƒEƒHƒbƒ_2" x1="481.56" y1="13.42" x2="481.56" y2="280.62" gradientTransform="translate(2.94 -5.37) rotate(.83)" gradientUnits="userSpaceOnUse"><stop offset="0" stop-color="#e0e0e0"/><stop offset=".13" stop-color="#e5e5e5"/><stop offset=".64" stop-color="#f8f8f8"/><stop offset="1" stop-color="#fff"/></linearGradient><linearGradient id="V_KƒOƒ_ƒf_ƒVƒ_ƒ_ƒXƒEƒHƒbƒ_1" x1="94.88" y1="117.81" x2="94.88" y2="237.75" gradientTransform="translate(2.94 -5.37) rotate(.83)" gradientUnits="userSpaceOnUse"><stop offset="0" stop-color="#718492"/><stop offset=".01" stop-color="#728593"/><stop offset=".46" stop-color="#a1b4c2"/><stop offset=".8" stop-color="#bfd1df"/><stop offset="1" stop-color="#cadcea"/></linearGradient></defs><g class="cls-17"><g id="Background"><path class="cls-21" d="M738.87,284.63l-488.03-7.06,2.54-175.46-33.49-.48.05-3.3c.02-1.38-1.07-2.51-2.44-2.53l-7.92-.11c-1.37-.02-2.49,1.08-2.51,2.46l-2.52,173.91c-.03,2.21-2.24,3.98-4.44,3.94l-190.82-2.76-.82,56.99,695.79,10.07-.39-15.6,34.43.5c1.89.03,3.45-1.5,3.48-3.41l.49-33.65c.03-1.91-1.49-3.48-3.38-3.51Z"/><path class="cls-8" d="M741.82,318.07l-12.32-.18c-1.89-.03-3.41-1.6-3.38-3.51l.27-18.75c.03-1.91,1.59-3.43,3.48-3.41l12.32.18-.37,25.67Z"/><path class="cls-30" d="M731.54,293.73c-1.89-.03-3.45,1.5-3.48,3.41l-.06,4.43c.03-1.91,1.59-3.43,3.48-3.41l10.63.15.06-4.43-10.63-.15Z"/><path class="cls-4" d="M727.86,310.61l-.03,2.21c-.03,1.91,1.49,3.48,3.38,3.51l10.63.15.03-2.21-10.63-.15c-1.89-.03-3.41-1.6-3.38-3.51Z"/><path d="M201.61,350.92l.14-9.99c.46-31.69-24.67-57.74-56.13-58.2-31.46-.46-57.33,24.86-57.79,56.55l-.14,9.99,113.93,1.65Z"/><path class="cls-1" d="M73.7,276.37l140.91,2.04c5.67.08,10.2,4.78,10.11,10.48l-.9,62.35c-.02,1.37-1.13,2.45-2.49,2.43l-17.3-.25c-1.36-.02-2.44-1.14-2.42-2.5l.14-9.99c.46-31.69-24.67-57.74-56.13-58.2-31.46-.46-57.34,24.86-57.8,56.55l-.14,9.99c-.02,1.37-1.13,2.45-2.49,2.43l-12.58-.18,1.09-75.15Z"/><path d="M622.34,357.01l.14-9.99c.46-31.69-24.68-57.74-56.14-58.2-31.46-.46-57.33,24.86-57.79,56.55l-.14,9.99,113.93,1.65Z"/><path class="cls-5" d="M28.04,101.89c3.43-10.7,11.48-17.83,22.58-19.42,28.53-4.09,89.45-8.25,111.1-7.94l26.49.38c10.61.15,19.08,8.93,18.92,19.62l-2.61,179.71c-.03,2.21-2.24,3.98-4.44,3.94l-59.79-.87c-31.1-.45-56.68,24.57-57.14,55.9l-.3,21.05c-.03,2.21-1.84,3.98-4.04,3.95l-69.9-1.01c-4.32-.06-7.77-3.64-7.71-7.99l1.14-78.51c.04-2.72,2.26-4.89,4.96-4.85h.42c-2.36-.03-4.3-1.71-4.72-3.96-.87-4.6-2.16-13.33-1.97-26.8.31-21.12.38-26.57.54-37.47.18-12.38,15.2-60.67,26.45-95.74Z"/><path class="cls-21" d="M198.77,340.89c-.44,30.1-25.02,54.16-54.92,53.73-29.89-.43-53.78-25.19-53.34-55.3.44-30.11,25.02-54.16,54.92-53.73,29.89.43,53.78,25.19,53.34,55.3Z"/><path class="cls-18" d="M178.51,340.59c-.27,18.84-15.66,33.89-34.37,33.62-18.71-.27-33.65-15.76-33.38-34.6s15.66-33.9,34.37-33.63c18.71.27,33.65,15.76,33.38,34.61Z"/><path class="cls-28" d="M163.23,340.29c-.15,10.34-8.6,18.61-18.87,18.46s-18.48-8.65-18.33-19,8.6-18.61,18.87-18.46,18.47,8.66,18.32,19ZM144.97,317.13c-12.55-.18-22.88,9.92-23.06,22.56s9.84,23.04,22.4,23.22,22.88-9.92,23.06-22.56-9.85-23.04-22.4-23.22Z"/><path class="cls-20" d="M158.12,340.3c-.11,7.4-6.15,13.31-13.5,13.21s-13.22-6.2-13.12-13.59,6.16-13.32,13.5-13.21,13.22,6.19,13.12,13.6ZM145.06,323.87c-8.85-.13-16.14,7-16.27,15.92s6.95,16.26,15.8,16.38,16.15-7,16.28-15.92-6.95-16.25-15.81-16.38Z"/><path class="cls-15" d="M186.55,312.11c-8.88-13.44-23.93-22.41-41.18-22.66-17.2-.25-32.88,8.15-41.75,21.38-.3.44-.43.98-.44,1.55-.02,1.6,1.25,2.91,2.84,2.94.99.01,1.87-.48,2.4-1.24,8.05-11.67,21.73-19.01,36.92-18.79,15.21.22,28.49,8.15,36.37,19.91.52.77,1.34,1.3,2.33,1.32,1.59.02,2.89-1.26,2.92-2.85,0-.57-.1-1.1-.4-1.55Z"/><path class="cls-19" d="M182.02,365.1c-8.43,11.99-22.35,19.74-38.03,19.51s-29.68-8.28-37.39-20.53c-.26-.41-.37-.91-.36-1.42.02-1.45,1.21-2.62,2.66-2.6.9.01,1.69.49,2.15,1.2,7.02,10.83,19.26,17.85,33.07,18.05,13.83.2,26.11-6.66,33.58-17.14.49-.68,1.25-1.15,2.15-1.14,1.44.02,2.6,1.22,2.58,2.67,0,.52-.12,1-.4,1.39Z"/><path class="cls-21" d="M145.01,314c1.79.03,3.53.27,5.23.61,1.07.21,1.59-.13,1.81-.8l.63-2.25c.25-.73-.16-1.78-1.27-2.01-2.04-.42-4.15-.71-6.32-.74s-4.28.2-6.34.55c-1.12.19-1.56,1.23-1.33,1.97l.57,2.27c.21.68.71,1.04,1.79.86,1.7-.29,3.45-.48,5.24-.46h-.02Z"/><path class="cls-21" d="M122.38,326.73c.92-1.55,2-2.95,3.14-4.26.72-.83.68-1.45.22-1.99l-1.63-1.68c-.51-.59-1.6-.75-2.36.11-1.38,1.57-2.68,3.26-3.79,5.14-1.11,1.87-1.97,3.83-2.69,5.81-.39,1.07.27,1.97,1.03,2.14l2.24.65c.68.16,1.25-.1,1.63-1.14.61-1.63,1.31-3.25,2.23-4.8v.02Z"/><path class="cls-21" d="M122.01,352.83c-.87-1.58-1.53-3.22-2.09-4.87-.35-1.04-.91-1.32-1.6-1.18l-2.26.58c-.76.15-1.45,1.03-1.09,2.12.66,1.99,1.46,3.97,2.52,5.88,1.06,1.91,2.31,3.63,3.64,5.25.73.87,1.83.75,2.36.17l1.67-1.63c.48-.52.54-1.14-.16-1.99-1.1-1.34-2.14-2.77-3.01-4.34v.02Z"/><path class="cls-21" d="M144.27,366.2c-1.79-.03-3.53-.27-5.23-.61-1.08-.21-1.59.13-1.81.81l-.63,2.25c-.25.74.16,1.78,1.27,2.01,2.05.41,4.15.71,6.32.74s4.28-.2,6.34-.55c1.12-.2,1.56-1.23,1.33-1.97l-.57-2.27c-.2-.68-.71-1.04-1.79-.86-1.7.29-3.45.48-5.24.46h.02Z"/><path class="cls-21" d="M166.9,353.46c-.92,1.55-2,2.94-3.14,4.25-.72.83-.68,1.45-.22,1.99l1.62,1.68c.51.59,1.61.75,2.36-.11,1.38-1.58,2.69-3.26,3.8-5.13,1.11-1.87,1.97-3.83,2.69-5.8.39-1.08-.28-1.98-1.03-2.15l-2.24-.64c-.69-.16-1.25.1-1.63,1.13-.61,1.63-1.31,3.25-2.23,4.8v-.02Z"/><path class="cls-21" d="M167.27,327.36c.87,1.58,1.53,3.22,2.09,4.86.35,1.05.91,1.32,1.6,1.19l2.26-.58c.76-.15,1.45-1.02,1.09-2.11-.66-1.99-1.46-3.97-2.52-5.88-1.06-1.9-2.31-3.63-3.65-5.24-.73-.88-1.84-.75-2.36-.18l-1.67,1.63c-.48.52-.54,1.14.16,1.99,1.1,1.34,2.14,2.77,3.01,4.34v-.02Z"/><path class="cls-21" d="M620.1,346.98c-.44,30.1-25.02,54.16-54.92,53.73-29.89-.43-53.78-25.19-53.34-55.3s25.02-54.16,54.92-53.73,53.77,25.19,53.34,55.3Z"/><path class="cls-27" d="M599.85,346.69c-.27,18.84-15.66,33.89-34.37,33.62s-33.65-15.76-33.38-34.6,15.66-33.9,34.37-33.63,33.65,15.76,33.38,34.61Z"/><path class="cls-25" d="M584.56,346.39c-.15,10.34-8.6,18.61-18.87,18.46-10.27-.15-18.47-8.65-18.32-19s8.6-18.61,18.87-18.46c10.27.15,18.48,8.66,18.33,19ZM566.3,323.23c-12.55-.18-22.88,9.92-23.06,22.56s9.85,23.04,22.4,23.22c12.55.18,22.88-9.92,23.06-22.56s-9.85-23.04-22.4-23.22Z"/><path class="cls-13" d="M579.45,346.4c-.11,7.4-6.15,13.31-13.5,13.21s-13.22-6.2-13.12-13.59,6.15-13.32,13.51-13.21,13.22,6.19,13.12,13.6ZM566.39,329.97c-8.85-.13-16.14,7-16.27,15.92-.13,8.92,6.95,16.26,15.8,16.38,8.86.13,16.15-7,16.28-15.92s-6.95-16.25-15.81-16.38Z"/><path class="cls-29" d="M607.88,318.21c-8.88-13.44-23.94-22.41-41.18-22.66s-32.89,8.15-41.75,21.38c-.29.44-.43.98-.44,1.55-.02,1.6,1.25,2.91,2.84,2.94.99.01,1.87-.48,2.39-1.24,8.05-11.67,21.74-19.01,36.92-18.79,15.2.22,28.48,8.15,36.36,19.91.52.77,1.34,1.3,2.33,1.32,1.59.02,2.9-1.26,2.92-2.85,0-.57-.11-1.1-.4-1.55Z"/><path class="cls-22" d="M603.36,371.2c-8.43,11.99-22.35,19.74-38.03,19.51s-29.68-8.28-37.39-20.53c-.26-.41-.37-.91-.36-1.42.02-1.45,1.21-2.62,2.66-2.6.9.01,1.68.49,2.14,1.2,7.02,10.83,19.26,17.85,33.07,18.05s26.11-6.66,33.58-17.14c.49-.68,1.25-1.15,2.15-1.14,1.45.02,2.6,1.22,2.58,2.67,0,.52-.13,1-.4,1.39Z"/><path class="cls-21" d="M566.34,320.1c1.79.03,3.53.27,5.23.61,1.08.21,1.59-.13,1.82-.8l.63-2.25c.25-.73-.16-1.78-1.27-2.01-2.04-.42-4.15-.71-6.32-.74s-4.28.2-6.34.55c-1.12.19-1.56,1.23-1.33,1.97l.57,2.27c.21.68.71,1.04,1.79.86,1.7-.29,3.45-.48,5.24-.46h-.02Z"/><path class="cls-21" d="M543.71,332.83c.92-1.55,2-2.95,3.14-4.26.72-.83.68-1.45.22-1.99l-1.62-1.68c-.51-.59-1.61-.75-2.36.11-1.38,1.57-2.68,3.26-3.79,5.14-1.11,1.87-1.97,3.83-2.69,5.81-.39,1.07.27,1.97,1.03,2.14l2.24.65c.69.16,1.25-.1,1.63-1.14.6-1.63,1.31-3.25,2.23-4.8v.02Z"/><path class="cls-21" d="M543.35,358.93c-.87-1.58-1.53-3.22-2.09-4.87-.35-1.04-.91-1.32-1.6-1.18l-2.26.58c-.76.15-1.45,1.03-1.09,2.12.66,1.99,1.47,3.97,2.52,5.88,1.06,1.91,2.31,3.63,3.64,5.25.73.87,1.84.75,2.36.17l1.67-1.63c.48-.52.54-1.14-.16-1.99-1.1-1.34-2.14-2.77-3.01-4.34v.02Z"/><path class="cls-21" d="M565.6,372.29c-1.79-.03-3.53-.27-5.23-.61-1.08-.21-1.59.13-1.81.81l-.63,2.25c-.25.74.16,1.78,1.27,2.01,2.05.41,4.15.71,6.32.74s4.28-.2,6.34-.55c1.12-.2,1.56-1.23,1.33-1.97l-.56-2.27c-.21-.68-.71-1.04-1.79-.86-1.7.29-3.45.48-5.24.46h.02Z"/><path class="cls-21" d="M588.23,359.56c-.92,1.55-2,2.94-3.14,4.25-.72.83-.68,1.45-.22,1.99l1.62,1.68c.51.59,1.61.75,2.36-.11,1.38-1.58,2.68-3.26,3.79-5.14,1.11-1.87,1.97-3.83,2.69-5.8.39-1.08-.28-1.98-1.03-2.15l-2.24-.64c-.69-.16-1.25.1-1.63,1.13-.61,1.63-1.31,3.25-2.23,4.8v-.02Z"/><path class="cls-21" d="M588.6,333.46c.87,1.58,1.53,3.22,2.09,4.86.35,1.05.91,1.32,1.6,1.19l2.26-.58c.76-.15,1.45-1.02,1.09-2.11-.67-1.99-1.47-3.97-2.52-5.88-1.06-1.9-2.31-3.63-3.64-5.24-.73-.88-1.84-.75-2.36-.18l-1.67,1.63c-.48.52-.54,1.14.16,1.99,1.1,1.34,2.14,2.77,3.02,4.34v-.02Z"/><path class="cls-1" d="M715.45,351.24c-.06,4.27-3.55,7.68-7.78,7.62l-50.23-.73c-4.24-.06-7.62-3.57-7.56-7.84l.74-50.83c.06-4.27,3.55-7.68,7.78-7.61l50.23.73c4.24.06,7.62,3.57,7.56,7.84l-.74,50.83Z"/><path class="cls-21" d="M706.44,350.25l-47.89-.69c-3.54-.05-6.37-2.99-6.32-6.56l-.09,6.08c-.05,3.57,2.78,6.51,6.32,6.56l47.89.69c3.54.05,6.46-2.81,6.51-6.37l.09-6.08c-.05,3.57-2.97,6.42-6.51,6.37Z"/><path class="cls-23" d="M707.15,301.7l-47.89-.69c-3.54-.05-6.46,2.8-6.51,6.37l.09-6.08c.05-3.57,2.96-6.42,6.51-6.37l47.89.69c3.54.05,6.38,2.98,6.33,6.56l-.09,6.08c.05-3.57-2.78-6.5-6.33-6.56Z"/><path class="cls-10" d="M77.1,349.13l-67.2-.97c-3.65-.05-6.57-3.08-6.52-6.76l-.09,6.26c-.05,3.68,2.86,6.7,6.52,6.76l66.92.94c3.65.05,5.22-1.4,5.27-4.52l.12-8.3c-.32,5.17-1.37,6.64-5.02,6.59Z"/><path class="cls-3" d="M3.82,276.55c.08-5.79,1.82-8.8,5.2-8.75,5.87.08,108.59,1.57,113.78,1.65,3.04.04,2.98,4.45-.06,4.4-4.96-.07-106.23-1.54-110.06-1.59s-7.19-.19-8.86,4.3Z"/><path class="cls-3" d="M32.31,104.56c4.01-7.21,11.77-11.45,20.8-12.59,27.88-3.49,86.92-6.49,108.09-6.18l25.53.37c7.74.12,14.91,4.08,16.95,11.34.15-10.27-6.43-18.68-16.62-18.83l-26.35-.38c-20.8-.3-79.31,3.69-106.7,7.62-10.67,1.53-18.39,8.37-21.69,18.65Z"/><path class="cls-1" d="M464.31,361.66c-.06,4.27-3.55,7.68-7.78,7.62l-201.61-2.92c-4.24-.06-7.62-3.57-7.56-7.84l.9-62.23c.06-4.26,3.55-7.68,7.78-7.61l201.61,2.92c4.24.06,7.62,3.57,7.56,7.84l-.9,62.23Z"/><path class="cls-21" d="M455.31,360.67l-199.27-2.88c-3.54-.05-6.37-2.99-6.32-6.55l-.09,6.08c-.05,3.57,2.78,6.5,6.32,6.55l199.27,2.88c3.54.05,6.46-2.8,6.51-6.37l.09-6.08c-.05,3.57-2.97,6.42-6.51,6.37Z"/><path class="cls-23" d="M456.17,300.71l-199.27-2.88c-3.54-.05-6.46,2.8-6.51,6.37l.09-6.08c.05-3.57,2.97-6.42,6.51-6.37l199.27,2.88c3.54.05,6.37,2.98,6.32,6.55l-.09,6.08c.05-3.57-2.78-6.5-6.32-6.56Z"/><path class="cls-21" d="M312.87,278.47l-1.13,78.37c-.03,1.79-1.49,3.22-3.26,3.2l-9.75-.14c-1.78-.03-3.2-1.5-3.17-3.29l1.13-78.37,16.18.23Z"/><path class="cls-21" d="M412.59,279.91l-1.13,78.37c-.03,1.79-1.49,3.22-3.26,3.2l-9.75-.14c-1.78-.03-3.19-1.5-3.17-3.29l1.13-78.37,16.18.23Z"/><path class="cls-21" d="M470.45,319.6c-.03,1.79-1.49,3.22-3.26,3.2l-221.73-3.21c-1.78-.03-3.19-1.5-3.17-3.29l.14-9.81c.03-1.79,1.49-3.22,3.26-3.19l221.73,3.21c1.78.03,3.2,1.5,3.17,3.28l-.14,9.81Z"/><path class="cls-21" d="M470.04,347.32c-.03,1.79-1.49,3.22-3.26,3.19l-221.73-3.21c-1.78-.03-3.19-1.5-3.17-3.28l.14-9.81c.03-1.79,1.49-3.22,3.26-3.2l221.73,3.21c1.78.03,3.2,1.5,3.17,3.29l-.14,9.81Z"/><path class="cls-23" d="M466.63,334.93l-220.98-3.2c-1.57-.02-2.87,1.25-2.89,2.83v.8c.01-1.59,1.31-2.85,2.88-2.83l220.98,3.2c1.57.02,2.83,1.32,2.81,2.91v-.8c.03-1.59-1.22-2.89-2.8-2.92Z"/><path class="cls-2" d="M466.43,348.92l-220.98-3.2c-1.57-.02-2.83-1.33-2.81-2.92v.81c-.03,1.59,1.22,2.89,2.8,2.91l220.98,3.2c1.57.02,2.87-1.24,2.89-2.83v-.81c-.01,1.59-1.31,2.86-2.88,2.84Z"/><path class="cls-23" d="M467.03,307.44l-220.98-3.2c-1.57-.02-2.87,1.25-2.89,2.83v.8c.01-1.58,1.31-2.85,2.88-2.83l220.98,3.2c1.57.02,2.83,1.32,2.81,2.91v-.8c.03-1.59-1.22-2.89-2.8-2.91Z"/><path class="cls-2" d="M466.82,321.42l-220.98-3.2c-1.57-.02-2.83-1.33-2.81-2.91v.8c-.03,1.59,1.22,2.89,2.8,2.91l220.98,3.2c1.57.02,2.87-1.24,2.89-2.83v-.8c-.01,1.59-1.31,2.85-2.88,2.83Z"/><rect x="299.6" y="275.37" width="10.22" height="16.18" transform="translate(16.86 584.03) rotate(-89.17)"/><rect x="302.53" y="313.97" width="3.24" height="16.18" transform="translate(-22.28 621.51) rotate(-89.17)"/><rect x="302.13" y="341.68" width="3.23" height="16.18" transform="translate(-50.38 648.42) rotate(-89.17)"/><rect x="399.32" y="276.82" width="10.22" height="16.18" transform="translate(113.7 685.17) rotate(-89.17)"/><rect x="402.25" y="315.41" width="3.24" height="16.18" transform="translate(74.55 722.65) rotate(-89.17)"/><rect x="401.85" y="343.12" width="3.23" height="16.18" transform="translate(46.45 749.55) rotate(-89.17)"/><path class="cls-6" d="M737.6,269.16c-.12,8.53-7.09,15.35-15.57,15.23l-483.25-6.99c-8.47-.12-15.24-7.14-15.12-15.68l3.55-245.13c.12-8.53,7.09-15.35,15.57-15.23l483.25,6.99c8.47.12,15.24,7.14,15.12,15.67l-3.55,245.13Z"/><path class="cls-3" d="M723.51,13.21L244.95,6.28c-6.94-.1-12.65,5.49-12.75,12.47l-.11,7.84c.1-6.99,5.81-12.58,12.75-12.47l478.56,6.93c6.94.1,12.49,5.85,12.38,12.84l.11-7.84c.1-6.99-5.45-12.74-12.38-12.84Z"/><path class="cls-24" d="M719.79,270.39l-478.56-6.93c-6.94-.1-12.49-5.85-12.38-12.84l-.11,7.84c-.1,6.99,5.44,12.73,12.38,12.83l478.56,6.93c6.94.1,12.65-5.48,12.75-12.47l.11-7.84c-.1,6.99-5.81,12.58-12.75,12.48Z"/><line class="cls-9" x1="124.68" y1="176.19" x2="123.39" y2="264.97"/><path class="cls-1" d="M71.34,328.86c-.04,2.56-2.13,4.6-4.67,4.57l-41.86-.61c-2.54-.04-4.57-2.14-4.53-4.7l.42-28.75c.04-2.56,2.13-4.61,4.67-4.57l41.86.61c2.54.04,4.57,2.14,4.53,4.7l-.42,28.75Z"/><path class="cls-21" d="M67.22,295.41l-41.86-.61c-2.54-.04-4.63,2.01-4.67,4.57l-.1,6.58c.04-2.56,2.13-4.6,4.67-4.56l41.86.61c2.54.04,4.57,2.14,4.53,4.7l.1-6.58c.04-2.56-1.99-4.67-4.53-4.7Z"/><path class="cls-14" d="M66.71,330.48l-41.86-.61c-2.54-.04-4.57-2.14-4.53-4.7l-.04,2.95c-.04,2.56,1.99,4.66,4.53,4.7l41.86.61c2.54.04,4.63-2.01,4.67-4.57l.04-2.95c-.04,2.56-2.13,4.6-4.67,4.57Z"/><path class="cls-7" d="M70.15,218.05l11.19-36.81c.89-3.4,3.89-5.64,7.15-5.59l70.63,1.07c5.4.08,9.84-4.26,9.91-9.7l.66-45.71c.08-5.44-4.23-9.9-9.63-9.98l-113.67-1.65c-4.2-.06-8.02,2.49-9.26,6.29-4.12,12.66-14.07,52.41-15.37,60.83-.19,1.2-.31,3.83-.32,4.43-.17,11.53-.4,27.44-.47,32.54s4.71,10.24,9.76,10.32,22.91.33,28.31.41c4.16.06,9.6-1.94,11.1-6.44Z"/><path class="cls-21" d="M24.44,309.59c-1.17-.02-2.11-.99-2.1-2.17s.98-2.13,2.16-2.12l43.09.62c1.18.02,2.12.99,2.1,2.18s-.98,2.13-2.16,2.11l-43.09-.62Z"/><path class="cls-21" d="M24.31,318.2c-1.17-.02-2.11-.99-2.1-2.18s.98-2.13,2.16-2.11l43.09.62c1.18.02,2.12.99,2.1,2.17s-.99,2.13-2.16,2.11l-43.09-.62Z"/><path class="cls-21" d="M24.19,326.82c-1.17-.02-2.11-.99-2.1-2.17s.98-2.13,2.16-2.12l43.09.62c1.18.02,2.12.99,2.1,2.18s-.98,2.13-2.16,2.11l-43.09-.62Z"/><g class="cls-11"><path class="cls-24" d="M24.71,163.07c-1.47,6.24-2.57,11.29-2.94,13.72-.19,1.2-.31,3.83-.32,4.43l-.47,32.54c-.07,5.09,4.71,10.24,9.76,10.32l8.36.12.13-8.98,17.96-25.3-13.55-30.3-18.93,3.45ZM163.13,127.27l-9.45,30.99-23.38-.34-3.28-21.91c-.27-1.77-2.1-2.87-3.04-2.88l-11.37-.16c-3.49-.05-8.88,15.63-6.6,19.38-3.53,2.22-4.79,4.07-7.14,10.23l-5.6,13.14,65.85,1c5.4.08,9.84-4.26,9.91-9.7l.62-42.83-2.3-.03c-1.51-.02-3.79,1.84-4.22,3.12Z"/><path class="cls-24" d="M78.49,183.83l-26.94-26.45c-1.06-1.03-2.74-1.01-3.77.05-1.03,1.06-1.01,2.76.05,3.79l9.54,9.36-13.69,14.15,7.17,7.04,13.69-14.15,10.23,10.04c1.05,1.03,2.74,1.01,3.77-.05,1.03-1.06,1.01-2.76-.05-3.8Z"/></g><rect class="cls-21" x="91.32" y="134.37" width="65.08" height="17.93" transform="translate(-21.25 265.12) rotate(-89.17)"/><path class="cls-12" d="M70.15,218.05l11.19-36.81c.89-3.4,3.89-5.64,7.15-5.59l70.63,1.07c5.4.08,9.84-4.26,9.91-9.7l.66-45.71c.08-5.44-4.23-9.9-9.63-9.98l-113.67-1.65c-4.2-.06-8.02,2.49-9.26,6.29-4.12,12.66-14.07,52.41-15.37,60.83-.19,1.2-.31,3.83-.32,4.43-.17,11.53-.4,27.44-.47,32.54s4.71,10.24,9.76,10.32,22.91.33,28.31.41c4.16.06,9.6-1.94,11.1-6.44Z"/><path class="cls-1" d="M624.76,359.5l11.94.17c1.36.02,2.47-1.07,2.49-2.43l.9-62.35c.08-5.71-4.44-10.4-10.11-10.48l-127.1-1.84c-5.67-.08-10.33,4.48-10.41,10.19l-.9,62.35c-.02,1.37,1.06,2.48,2.42,2.5l11.94.17c1.35.02,2.47-1.07,2.49-2.43l.14-9.99c.46-31.69,26.33-57,57.79-56.55,31.46.46,56.59,26.51,56.14,58.2l-.14,9.99c-.02,1.37,1.06,2.48,2.42,2.5Z"/><g id="_Слой_1"><path class="cls-16" d="M408.87,182.52l.64-44.34-16.14-.23.07-5.01,37.67.55-.07,5.01-16-.23-.64,44.34-5.53-.08ZM441.95,155.33l25.1.36-.07,4.81-25.1-.36-.26,17.92,26.17.38-.07,4.94-31.63-.46.71-49.34,31.75.46-.07,4.87-26.29-.38-.24,16.8h0ZM507.66,167.48l5.34.08c-.06,4.38-.67,7.78-1.84,10.18-1.15,2.4-3.15,4.12-5.96,5.13-2.82,1.01-6.81,1.48-12,1.41-3.93-.06-7.12-.44-9.55-1.17-2.44-.73-4.39-1.99-5.84-3.76-1.46-1.78-2.5-4.31-3.12-7.58-.62-3.26-.9-7.54-.82-12.81s.47-9.52,1.17-12.79c.71-3.27,1.82-5.81,3.34-7.61,1.53-1.8,3.53-3.05,6-3.74,2.47-.69,5.66-1.01,9.56-.95s7.04.42,9.46,1.08c2.41.67,4.26,1.67,5.56,3s2.19,2.95,2.69,4.9c.51,1.94.83,4.44.96,7.49l-5.32-.14c-.29-3.24-.74-5.62-1.35-7.11-.6-1.49-1.81-2.59-3.6-3.28-1.79-.7-4.61-1.08-8.46-1.13-2.91-.04-5.26.21-7.06.75-1.79.56-3.22,1.55-4.28,3-1.06,1.45-1.83,3.49-2.31,6.13-.48,2.64-.75,6.13-.81,10.47s.11,7.87.5,10.45c.39,2.59,1.1,4.6,2.11,6.05,1.02,1.45,2.41,2.46,4.18,3.03,1.77.56,4.14.86,7.08.9s5.39-.11,7.22-.46c1.84-.34,3.26-.95,4.3-1.83,1.03-.87,1.75-2.07,2.18-3.6.43-1.53.66-3.57.69-6.1h0ZM525.03,156.66l28.86.42.31-21.74,5.47.08-.71,49.28-5.47-.08.33-22.73-28.86-.42-.33,22.73-5.47-.08.71-49.28,5.47.08-.31,21.74h0Z"/><path class="cls-26" d="M291.49,156.51l-.45,29.18c-.07,5.5,2.77,10.61,7.47,13.42l78.48,46.95c4.72,2.82,10.58,2.9,15.38.24l25.65-14.28-126.52-75.51h0Z"/><path class="cls-16" d="M347.56,54.78l-47.21,26.29c-4.79,2.67-7.82,7.68-7.89,13.18l-.4,25.92,84.66,50.53-29.15-115.92h0Z"/><path class="cls-26" d="M474.08,83.75l-78.48-46.95c-4.7-2.81-10.58-2.9-15.35-.22l-6.52,3.63,15.77,67.24,92.02-8.91.02-1.38c.1-5.48-2.76-10.59-7.47-13.42h0Z"/></g></g></g></svg>